<!-- Generator: Adobe Illustrator 16.0.1, SVG Export Plug-In . SVG Version: 6.00 Build 0)  -->
<svg xmlns:rdf="http://www.w3.org/1999/02/22-rdf-syntax-ns#" xmlns="http://www.w3.org/2000/svg" enable-background="new 0 0 612 792" xml:space="preserve" height="492.91" viewBox="0 0 492.909 492.90799" width="492.91" version="1.1" y="0px" x="0px" xmlns:cc="http://creativecommons.org/ns#" xmlns:dc="http://purl.org/dc/elements/1.1/"><metadata><rdf:RDF><cc:Work rdf:about=""><dc:format>image/svg+xml</dc:format><dc:type rdf:resource="http://purl.org/dc/dcmitype/StillImage"/><dc:title/></cc:Work></rdf:RDF></metadata><g transform="translate(-60.719,-73.565)"><path fill="#53a3da" d="m307.19,73.565c-135.92,0-246.47,110.56-246.47,246.46s110.55,246.45,246.47,246.45c135.88,0,246.44-110.56,246.44-246.45,0-135.9-110.57-246.46-246.44-246.46z"/><path fill="#f1606d" d="m307.19,96.184c-39.632,0-73.248,63.391-85.388,151.51-0.39,2.835-0.762,5.696-1.098,8.59-1.656,13.867-2.779,28.287-3.341,43.129-0.269,6.792-0.401,13.659-0.401,20.611,0,6.945,0.132,13.819,0.401,20.604,0.562,14.842,1.685,29.263,3.341,43.135,18.587,2.4,38.455,4.039,59.179,4.813,8.959,0.334,18.051,0.535,27.306,0.535,9.226,0,18.343-0.201,27.277-0.535,20.75-0.775,40.606-2.414,59.204-4.813,2.046-0.267,4.066-0.554,6.098-0.842,77.4-10.87,131.24-34.93,131.24-62.89,0.01-123.63-100.22-223.84-223.82-223.84z"/><path fill="#FFF" d="m399.77,257.12c-2.246-3.276-4.653-6.412-7.221-9.426-20.538-24.208-51.131-39.592-85.358-39.592-11.1,0-20.979,16.988-27.306,43.363-2.513,10.516-4.464,22.517-5.722,35.541-0.988,10.436-1.524,21.534-1.524,33.02s0.536,22.583,1.524,33.013c10.444,0.989,21.527,1.524,33.028,1.524,11.483,0,22.569-0.536,33.013-1.524,22.957-2.18,42.773-6.593,56.812-12.41,13.865-5.742,22.074-12.876,22.074-20.604,0-23.32-7.126-44.974-19.32-62.905z"/></g></svg>
