<!-- Created with Inkscape (http://www.inkscape.org/) -->
<svg xmlns:rdf="http://www.w3.org/1999/02/22-rdf-syntax-ns#" xmlns="http://www.w3.org/2000/svg" xml:space="preserve" height="338.01" width="595.3" version="1.1" xmlns:cc="http://creativecommons.org/ns#" xmlns:dc="http://purl.org/dc/elements/1.1/"><metadata><rdf:RDF><cc:Work rdf:about=""><dc:format>image/svg+xml</dc:format><dc:type rdf:resource="http://purl.org/dc/dcmitype/StillImage"/><dc:title/></cc:Work></rdf:RDF></metadata><g transform="matrix(1.25,0,0,-1.25,-110,615.0005)"><g transform="translate(363.3867,406.6094)"><path d="m0,0,42.695,0,0-43.646,21.588,0c9.969,0,20.223,1.777,29.664,4.976,4.639,1.572,9.846,3.762,14.422,6.515-6.027,7.869-9.103,17.804-10.01,27.598-1.23,13.322,1.457,30.661,10.473,41.086l4.488,5.192,5.348-4.299c13.465-10.818,24.789-25.935,26.785-43.166,16.213,4.768,35.248,3.64,49.539-4.608l5.863-3.382-3.085-6.024c-12.086-23.588-37.354-30.894-62.057-29.601-36.965-92.069-117.44-135.66-215.02-135.66-50.412,0-96.664,18.846-123,63.573l-0.431,0.73-3.838,7.807c-8.902,19.687-11.86,41.256-9.854,62.805l0.602,6.455h36.51v43.646h42.693v42.695h85.393v42.696l51.227,0.004v-85.391z" fill-rule="evenodd" fill="#394d54"/></g><g transform="translate(501.7129,390.4629)"><path d="m0,0c2.863,22.248-13.787,39.725-24.113,48.021-11.899-13.757-13.748-49.812,4.92-64.992-10.418-9.254-32.371-17.642-54.85-17.642h-273.63c-2.185-23.465,1.934-45.073,11.342-63.569l3.113-5.693c1.971-3.345,4.124-6.573,6.451-9.681h0.001c11.249-0.722,21.621-0.972,31.11-0.762h0.005c18.647,0.413,33.862,2.613,45.394,6.609,1.717,0.597,3.588-0.313,4.182-2.029,0.593-1.715-0.315-3.587-2.03-4.182-1.533-0.531-3.132-1.028-4.783-1.5-0.002-0.001-0.004-0.001-0.006-0.002-9.08-2.592-18.816-4.337-31.379-5.112,0.745-0.012-0.777-0.112-0.781-0.112-0.427-0.027-0.965-0.087-1.394-0.112-4.944-0.277-10.281-0.335-15.737-0.335-5.966,0-11.844,0.114-18.414,0.447l-0.168-0.112c22.799-25.625,58.448-40.994,103.13-40.994,94.57,0,174.78,41.922,210.3,136.04,25.201-2.586,49.42,3.84,60.437,25.346-17.526,10.104-40.093,6.875-53.087,0.344" fill-rule="nonzero" fill="#00aada"/></g><g transform="translate(501.7129,390.4629)"><path d="m0,0c2.863,22.248-13.787,39.725-24.113,48.021-11.899-13.757-13.748-49.812,4.92-64.992-10.418-9.254-32.371-17.642-54.85-17.642h-257.42c-1.117-35.936,12.219-63.214,35.814-79.705h0.005c18.647,0.413,33.862,2.613,45.394,6.609,1.717,0.597,3.588-0.313,4.182-2.029,0.593-1.715-0.315-3.587-2.03-4.182-1.533-0.531-3.132-1.028-4.783-1.5-0.002-0.001-0.004-0.001-0.006-0.002-9.08-2.592-19.653-4.56-32.215-5.336-0.004,0-0.305,0.291-0.309,0.29,32.185-16.509,78.852-16.45,132.36,4.103,59.986,23.052,115.81,66.962,154.76,117.18-0.588-0.265-1.16-0.537-1.713-0.814" fill-rule="nonzero" fill="#24b8eb"/></g><g transform="translate(154.5547,327.3398)"><path d="m0,0c1.701-12.568,5.377-24.338,10.83-35.059l3.113-5.693c1.971-3.345,4.124-6.573,6.453-9.681,11.25-0.722,21.624-0.972,31.114-0.762,18.647,0.413,33.862,2.613,45.394,6.609,1.717,0.597,3.588-0.313,4.182-2.029,0.594-1.715-0.315-3.587-2.029-4.182-1.534-0.531-3.133-1.028-4.784-1.5-0.002-0.001-0.003-0.001-0.005-0.002-9.08-2.592-19.598-4.449-32.161-5.224-0.43-0.027-1.183-0.032-1.618-0.056-4.942-0.277-10.223-0.446-15.68-0.446-5.966,0-12.068,0.113-18.637,0.446,22.799-25.625,58.67-41.05,103.35-41.05,80.961,0,151.4,30.731,192.28,98.629h-321.81z" fill-rule="nonzero" fill="#008bb8"/></g><g transform="translate(172.709,327.3398)"><path d="m0,0c4.84-22.069,16.471-39.395,33.355-51.195,18.648,0.413,33.863,2.613,45.395,6.609,1.717,0.597,3.588-0.313,4.182-2.029,0.593-1.715-0.315-3.587-2.03-4.182-1.533-0.531-3.132-1.028-4.783-1.5-0.002-0.001-0.004-0.001-0.006-0.002-9.08-2.592-19.82-4.449-32.383-5.224,32.182-16.507,78.715-16.27,132.22,4.281,32.366,12.435,63.516,30.947,91.463,53.242h-267.41z" fill-rule="nonzero" fill="#039bc6"/></g><path d="m191.18,399.49,37.002,0,0-37.004-37.002,0,0,37.004zm3.082-3.084,2.92,0,0-30.838-2.92,0,0,30.838zm5.49,0,3.037,0,0-30.838-3.037,0,0,30.838zm5.605,0,3.037,0,0-30.838-3.037,0,0,30.838zm5.608,0,3.037,0,0-30.838-3.037,0,0,30.838zm5.607,0,3.037,0,0-30.838-3.037,0,0,30.838zm5.606,0,2.922,0,0-30.838-2.922,0,0,30.838z" fill-rule="evenodd" fill="#00acd3"/><path d="m233.88,442.19,37.006,0,0-37.003-37.006,0,0,37.003zm3.086-3.084,2.918,0,0-30.836-2.918,0,0,30.836zm5.49,0,3.035,0,0-30.836-3.035,0,0,30.836zm5.604,0,3.037,0,0-30.836-3.037,0,0,30.836zm5.607,0,3.037,0,0-30.836-3.037,0,0,30.836zm5.608,0,3.037,0,0-30.836-3.037,0,0,30.836zm5.605,0,2.924,0,0-30.836-2.924,0,0,30.836z" fill-rule="evenodd" fill="#00acd3"/><path d="m233.88,399.49,37.006,0,0-37.004-37.006,0,0,37.004zm3.086-3.084,2.918,0,0-30.838-2.918,0,0,30.838zm5.49,0,3.035,0,0-30.838-3.035,0,0,30.838zm5.604,0,3.037,0,0-30.838-3.037,0,0,30.838zm5.607,0,3.037,0,0-30.838-3.037,0,0,30.838zm5.608,0,3.037,0,0-30.838-3.037,0,0,30.838zm5.605,0,2.924,0,0-30.838-2.924,0,0,30.838z" fill-rule="evenodd" fill="#20c2ef"/><path d="m276.57,399.49,37.004,0,0-37.004-37.004,0,0,37.004zm3.084-3.084,2.918,0,0-30.838-2.918,0,0,30.838zm5.489,0,3.037,0,0-30.838-3.037,0,0,30.838zm5.607,0,3.037,0,0-30.838-3.037,0,0,30.838zm5.607,0,3.037,0,0-30.838-3.037,0,0,30.838zm5.606,0,3.039,0,0-30.838-3.039,0,0,30.838zm5.607,0,2.92,0,0-30.838-2.92,0,0,30.838z" fill-rule="evenodd" fill="#00acd3"/><path d="m276.57,442.19,37.004,0,0-37.003-37.004,0,0,37.003zm3.084-3.084,2.918,0,0-30.836-2.918,0,0,30.836zm5.489,0,3.037,0,0-30.836-3.037,0,0,30.836zm5.607,0,3.037,0,0-30.836-3.037,0,0,30.836zm5.607,0,3.037,0,0-30.836-3.037,0,0,30.836zm5.606,0,3.039,0,0-30.836-3.039,0,0,30.836zm5.607,0,2.92,0,0-30.836-2.92,0,0,30.836z" fill-rule="evenodd" fill="#20c2ef"/><path d="m319.27,399.49,37.004,0,0-37.004-37.004,0,0,37.004zm3.084-3.084,2.92,0,0-30.838-2.92,0,0,30.838zm5.49,0,3.037,0,0-30.838-3.037,0,0,30.838zm5.605,0,3.037,0,0-30.838-3.037,0,0,30.838zm5.608,0,3.037,0,0-30.838-3.037,0,0,30.838zm5.607,0,3.037,0,0-30.838-3.037,0,0,30.838zm5.606,0,2.922,0,0-30.838-2.922,0,0,30.838z" fill-rule="evenodd" fill="#20c2ef"/><path d="m319.27,442.19,37.004,0,0-37.003-37.004,0,0,37.003zm3.084-3.084,2.92,0,0-30.836-2.92,0,0,30.836zm5.49,0,3.037,0,0-30.836-3.037,0,0,30.836zm5.605,0,3.037,0,0-30.836-3.037,0,0,30.836zm5.608,0,3.037,0,0-30.836-3.037,0,0,30.836zm5.607,0,3.037,0,0-30.836-3.037,0,0,30.836zm5.606,0,2.922,0,0-30.836-2.922,0,0,30.836z" fill-rule="evenodd" fill="#00acd3"/><path d="m319.27,484.88,37.004,0,0-37.004-37.004,0,0,37.004zm3.084-3.082,2.92,0,0-30.838-2.92,0,0,30.838zm5.49,0,3.037,0,0-30.838-3.037,0,0,30.838zm5.605,0,3.037,0,0-30.838-3.037,0,0,30.838zm5.608,0,3.037,0,0-30.838-3.037,0,0,30.838zm5.607,0,3.037,0,0-30.838-3.037,0,0,30.838zm5.606,0,2.922,0,0-30.838-2.922,0,0,30.838z" fill-rule="evenodd" fill="#20c2ef"/><path d="m361.96,399.49,37.004,0,0-37.004-37.004,0,0,37.004zm3.082-3.084,2.922,0,0-30.838-2.922,0,0,30.838zm5.49,0,3.037,0,0-30.838-3.037,0,0,30.838zm5.608,0,3.037,0,0-30.838-3.037,0,0,30.838zm5.605,0,3.037,0,0-30.838-3.037,0,0,30.838zm5.609,0,3.035,0,0-30.838-3.035,0,0,30.838zm5.606,0,2.92,0,0-30.838-2.92,0,0,30.838z" fill-rule="evenodd" fill="#00acd3"/><g transform="translate(268.5645,302.4961)"><path d="m0,0c5.637,0,10.207-4.572,10.207-10.209s-4.57-10.207-10.207-10.207c-5.639,0-10.209,4.57-10.209,10.207s4.57,10.209,10.209,10.209" fill-rule="evenodd" fill="#d4edf1"/></g><g transform="translate(268.5645,299.5996)"><path d="M0,0c0.934,0,1.824-0.176,2.646-0.494-0.89-0.516-1.494-1.481-1.494-2.584,0-1.649,1.336-2.983,2.985-2.983,1.129,0,2.109,0.627,2.617,1.553,0.357-0.863,0.557-1.81,0.557-2.805,0-4.037-3.274-7.31-7.311-7.31s-7.313,3.273-7.313,7.31c0,4.04,3.276,7.313,7.313,7.313" fill-rule="evenodd" fill="#394d54"/></g><g transform="translate(88,323.6504)"><path d="M0,0,223.61,0,251.27,0,474.88,0c-10.34,2.623-32.72,6.166-29.03,19.717-18.8-21.756-64.14-15.264-75.58-4.535-12.75-18.483-86.93-11.457-92.1,2.941-15.98-18.748-65.48-18.748-81.46,0-5.17-14.398-79.35-21.424-92.1-2.941-11.442-10.729-56.78-17.221-75.583,4.535,3.69-13.551-18.685-17.094-29.027-19.717" fill-rule="evenodd" fill="#394d54"/></g><g transform="translate(295.7012,228.9316)"><path d="m0,0c-25.281,11.997-39.158,28.306-46.879,46.109-9.391-2.68-20.68-4.393-33.795-5.13-4.941-0.277-10.139-0.418-15.594-0.418-6.287,0-12.914,0.185-19.869,0.554,23.184-23.17,51.705-41.01,104.52-41.336,3.898,0,7.769,0.076,11.621,0.221" fill-rule="nonzero" fill="#bfdbe0"/></g><g transform="translate(258.2129,258.6133)"><path d="M0,0c-3.498,4.748-6.891,10.715-9.385,16.43-9.392-2.682-20.683-4.396-33.801-5.132,9.01-4.892,21.897-9.423,43.186-11.298" fill-rule="nonzero" fill="#d4edf1"/></g></g></svg>
